<?xml version="1.0" encoding="UTF-8" standalone="no"?>
<!DOCTYPE svg PUBLIC "-//W3C//DTD SVG 1.1//EN" "http://www.w3.org/Graphics/SVG/1.1/DTD/svg11.dtd">
<svg width="100%" height="100%" viewBox="0 0 576 512" version="1.1" xmlns="http://www.w3.org/2000/svg" xmlns:xlink="http://www.w3.org/1999/xlink" xml:space="preserve" xmlns:serif="http://www.serif.com/" style="fill-rule:evenodd;clip-rule:evenodd;stroke-linejoin:round;stroke-miterlimit:2;">
    <path d="M572.1,82.38C569.5,71.59 559.8,64 548.7,64L447.9,64C448.142,51.55 448.008,40.3 447.744,30.98C447.3,13.63 433.2,0 415.8,0L160.2,0C142.8,0 128.7,13.63 128.2,30.98C127.1,40.3 127.8,51.55 128.1,64L27.26,64C16.16,64 6.537,71.59 3.912,82.38C3.1,85.78 -15.71,167.2 37.07,245.9C74.51,301.72 137.67,340.93 224.57,363.3C243.27,368.105 255.98,385.36 255.98,404.67C256,428.5 236.5,448 212.6,448L208,448C181.49,448 160.01,469.49 160.01,496C160.01,504.836 167.173,512 175.11,512L398.21,512C407.046,512 413.31,504.836 413.31,496C413.31,469.49 391.83,448 365.32,448L360.676,448C336.816,448 317.316,428.5 317.316,404.65C317.316,385.34 330.026,368.08 348.726,363.28C435.686,340.94 498.826,301.73 536.226,245.88C591.7,167.2 572.9,85.78 572.1,82.38ZM77.41,219.8C49.47,178.6 47.01,135.7 48.38,112L128.77,112C134.129,171.62 149.12,243.1 186.44,301.1C137.4,281.6 100.9,254.4 77.41,219.8ZM498.6,219.8C475.16,254.4 438.66,281.55 389.6,301.02C426.9,243.1 441.9,171.6 447.2,112L527.59,112C528.1,135.7 526.5,178.7 498.6,219.8Z" style="fill:rgb(185,137,215);fill-rule:nonzero;"/>
</svg>
