<?xml version="1.0" encoding="UTF-8" standalone="no"?>
<!DOCTYPE svg PUBLIC "-//W3C//DTD SVG 1.1//EN" "http://www.w3.org/Graphics/SVG/1.1/DTD/svg11.dtd">
<svg width="100%" height="100%" viewBox="0 0 448 512" version="1.1" xmlns="http://www.w3.org/2000/svg" xmlns:xlink="http://www.w3.org/1999/xlink" xml:space="preserve" xmlns:serif="http://www.serif.com/" style="fill-rule:evenodd;clip-rule:evenodd;stroke-linejoin:round;stroke-miterlimit:2;">
    <g transform="matrix(-1,0,0,1,448,0)">
        <path d="M0,96C0,60.65 28.65,32 64,32L384,32C419.3,32 448,60.65 448,96L448,416C448,451.3 419.3,480 384,480L64,480C28.65,480 0,451.3 0,416L0,96ZM128,256C128,238.3 113.7,224 96,224C78.33,224 64,238.3 64,256C64,273.7 78.33,288 96,288C113.7,288 128,273.7 128,256ZM128,160C128,142.3 113.7,128 96,128C78.33,128 64,142.3 64,160C64,177.7 78.33,192 96,192C113.7,192 128,177.7 128,160ZM128,352C128,334.3 113.7,320 96,320C78.33,320 64,334.3 64,352C64,369.7 78.33,384 96,384C113.7,384 128,369.7 128,352ZM192,136C178.7,136 168,146.7 168,160C168,173.3 178.7,184 192,184L352,184C365.3,184 376,173.3 376,160C376,146.7 365.3,136 352,136L192,136ZM192,232C178.7,232 168,242.7 168,256C168,269.3 178.7,280 192,280L352,280C365.3,280 376,269.3 376,256C376,242.7 365.3,232 352,232L192,232ZM192,328C178.7,328 168,338.7 168,352C168,365.3 178.7,376 192,376L352,376C365.3,376 376,365.3 376,352C376,338.7 365.3,328 352,328L192,328Z" style="fill:rgb(6,132,198);fill-rule:nonzero;"/>
    </g>
</svg>
