<?xml version="1.0" encoding="UTF-8" standalone="no"?>
<!DOCTYPE svg PUBLIC "-//W3C//DTD SVG 1.1//EN" "http://www.w3.org/Graphics/SVG/1.1/DTD/svg11.dtd">
<svg width="100%" height="100%" viewBox="0 0 512 512" version="1.1" xmlns="http://www.w3.org/2000/svg" xmlns:xlink="http://www.w3.org/1999/xlink" xml:space="preserve" xmlns:serif="http://www.serif.com/" style="fill-rule:evenodd;clip-rule:evenodd;stroke-linejoin:round;stroke-miterlimit:2;">
    <path d="M240.1,4.216C249.1,-1.405 262,-1.405 271.9,4.216L443.6,102.4L447.1,104L447.1,104.9L495.9,132.2C508.5,139.4 514.6,154.2 510.9,168.2C507.2,182.2 494.5,192 479.1,192L31.1,192C17.49,192 4.795,182.2 1.071,168.2C-2.653,154.2 3.524,139.4 16.12,132.2L63.1,104.9L63.1,104L68.37,102.4L240.1,4.216ZM64,224L128,224L128,416L168,416L168,224L232,224L232,416L280,416L280,224L344,224L344,416L384,416L384,224L448,224L448,420.3C448.6,420.6 449.2,420.1 449.8,421.4L497.8,453.4C509.5,461.2 514.7,475.8 510.6,489.3C506.5,502.8 494.1,512 480,512L32,512C17.9,512 5.46,502.8 1.373,489.3C-2.713,475.8 2.517,461.2 14.25,453.4L62.25,421.4C62.82,420.1 63.41,420.6 64,420.3L64,224Z" style="fill-rule:nonzero;"/>
</svg>
