<?xml version="1.0" encoding="UTF-8" standalone="no"?>
<!DOCTYPE svg PUBLIC "-//W3C//DTD SVG 1.1//EN" "http://www.w3.org/Graphics/SVG/1.1/DTD/svg11.dtd">
<svg width="100%" height="100%" viewBox="0 0 512 512" version="1.1" xmlns="http://www.w3.org/2000/svg" xmlns:xlink="http://www.w3.org/1999/xlink" xml:space="preserve" xmlns:serif="http://www.serif.com/" style="fill-rule:evenodd;clip-rule:evenodd;stroke-linejoin:round;stroke-miterlimit:2;">
    <g transform="matrix(1.10859,0,0,1.11802,-3.09685,-3.67681)">
        <path d="M143.54,46.442C143.54,36.996 135.805,29.326 126.278,29.326L45.781,29.326C36.253,29.326 28.519,36.996 28.519,46.442L28.519,125.878C28.519,135.325 36.253,142.995 45.781,142.995L126.278,142.995C135.805,142.995 143.54,135.325 143.54,125.878L143.54,46.442Z" style="fill:rgb(52,147,61);"/>
    </g>
    <path d="M482.959,48.151C482.959,37.64 474.426,29.107 463.915,29.107L203.878,29.107C193.367,29.107 184.834,37.64 184.834,48.151L184.834,137.021C184.834,147.531 193.367,156.064 203.878,156.064L463.915,156.064C474.426,156.064 482.959,147.531 482.959,137.021L482.959,48.151Z" style="fill:rgb(52,147,61);"/>
    <path d="M156.643,204.03C156.643,193.467 148.068,184.891 137.504,184.891L48.189,184.891C37.626,184.891 29.05,193.467 29.05,204.03L29.05,307.214C29.05,317.777 37.626,326.353 48.189,326.353L137.504,326.353C148.068,326.353 156.643,317.777 156.643,307.214L156.643,204.03Z" style="fill:rgb(52,147,61);"/>
    <path d="M483.244,205.671C483.244,193.906 473.693,184.355 461.928,184.355L206.516,184.355C194.751,184.355 185.2,193.906 185.2,205.671L185.2,305.149C185.2,316.914 194.751,326.465 206.516,326.465L461.928,326.465C473.693,326.465 483.244,316.914 483.244,305.149L483.244,205.671Z" style="fill:rgb(52,147,61);"/>
    <path d="M155.934,374.403C155.934,363.891 147.4,355.357 136.888,355.357L48.005,355.357C37.493,355.357 28.959,363.891 28.959,374.403L28.959,463.645C28.959,474.157 37.493,482.692 48.005,482.692L136.888,482.692C147.4,482.692 155.934,474.157 155.934,463.645L155.934,374.403Z" style="fill:rgb(52,147,61);"/>
    <path d="M483.437,374.426C483.437,363.85 474.851,355.264 464.275,355.264L204.333,355.264C193.757,355.264 185.171,363.85 185.171,374.426L185.171,463.849C185.171,474.424 193.757,483.011 204.333,483.011L464.275,483.011C474.851,483.011 483.437,474.424 483.437,463.849L483.437,374.426Z" style="fill:rgb(52,147,61);"/>
</svg>
