<?xml version="1.0" encoding="UTF-8" standalone="no"?>
<!DOCTYPE svg PUBLIC "-//W3C//DTD SVG 1.1//EN" "http://www.w3.org/Graphics/SVG/1.1/DTD/svg11.dtd">
<svg width="100%" height="100%" viewBox="0 0 512 512" version="1.1" xmlns="http://www.w3.org/2000/svg" xmlns:xlink="http://www.w3.org/1999/xlink" xml:space="preserve" xmlns:serif="http://www.serif.com/" style="fill-rule:evenodd;clip-rule:evenodd;stroke-linecap:round;stroke-linejoin:round;stroke-miterlimit:1.5;">
    <g transform="matrix(0.985426,0,0,1.01608,2.17495,2.43838)">
        <rect x="11.762" y="11.896" width="490.82" height="153.034" style="fill:none;stroke:black;stroke-width:27.98px;"/>
    </g>
    <g transform="matrix(1.14109,0,0,0.977206,-70.2146,-14.6538)">
        <rect x="145.252" y="189.268" width="352.402" height="168.286" style="fill:none;stroke:black;stroke-width:26.36px;"/>
    </g>
    <g transform="matrix(1,0,0,1,28.7407,0)">
        <path d="M141.259,16.33L141.259,153.638" style="fill:none;stroke:black;stroke-width:28px;"/>
    </g>
    <g transform="matrix(1,0,0,0.4835,-2.32726,84.6475)">
        <path d="M250.972,195.527L250.972,492.354" style="fill:none;stroke:black;stroke-width:35.65px;"/>
    </g>
    <g transform="matrix(0.924251,0,0,0.967817,37.8761,152.312)">
        <rect x="145.252" y="189.268" width="352.402" height="168.286" style="fill:none;stroke:black;stroke-width:29.59px;"/>
    </g>
    <g transform="matrix(1,0,0,0.4835,75.4878,255.771)">
        <path d="M250.972,195.527L250.972,492.354" style="fill:none;stroke:black;stroke-width:35.65px;"/>
    </g>
</svg>
