<?xml version="1.0" encoding="UTF-8" standalone="no"?>
<!DOCTYPE svg PUBLIC "-//W3C//DTD SVG 1.1//EN" "http://www.w3.org/Graphics/SVG/1.1/DTD/svg11.dtd">
<svg width="100%" height="100%" viewBox="0 0 512 512" version="1.1" xmlns="http://www.w3.org/2000/svg" xmlns:xlink="http://www.w3.org/1999/xlink" xml:space="preserve" xmlns:serif="http://www.serif.com/" style="fill-rule:evenodd;clip-rule:evenodd;stroke-linejoin:round;stroke-miterlimit:2;">
    <g transform="matrix(1,0,0,1.00216,0,-0.335843)">
        <path d="M155.365,48.237C155.365,37.79 146.866,29.308 136.396,29.308L47.427,29.308C36.958,29.308 28.458,37.79 28.458,48.237L28.458,136.569C28.458,147.016 36.958,155.497 47.427,155.497L136.396,155.497C146.866,155.497 155.365,147.016 155.365,136.569L155.365,48.237Z" style="fill:rgb(52,147,61);"/>
    </g>
    <g transform="matrix(1,0,0,1.00352,0,-0.546359)">
        <path d="M482.909,48.481C482.909,38.067 474.424,29.611 463.973,29.611L203.291,29.611C192.84,29.611 184.355,38.067 184.355,48.481L184.355,136.542C184.355,146.956 192.84,155.412 203.291,155.412L463.973,155.412C474.424,155.412 482.909,146.956 482.909,136.542L482.909,48.481Z" style="fill:rgb(52,147,61);"/>
    </g>
    <g transform="matrix(1,0,0,1.00397,0,-1.27033)">
        <path d="M234.494,203.78C234.494,193.536 226.144,185.219 215.86,185.219L128.901,185.219C118.617,185.219 110.267,193.536 110.267,203.78L110.267,301.463C110.267,311.707 118.617,320.023 128.901,320.023L215.86,320.023C226.144,320.023 234.494,311.707 234.494,301.463L234.494,203.78Z" style="fill:rgb(52,147,61);"/>
    </g>
    <g transform="matrix(1.00428,0,0,1.00487,-2.06432,-1.55932)">
        <path d="M482.845,205.483C482.845,194.315 473.772,185.248 462.597,185.248L283.845,185.248C272.67,185.248 263.597,194.315 263.597,205.483L263.597,299.916C263.597,311.084 272.67,320.152 283.845,320.152L462.597,320.152C473.772,320.152 482.845,311.084 482.845,299.916L482.845,205.483Z" style="fill:rgb(52,147,61);"/>
    </g>
    <g transform="matrix(1,0,0,1.005,0,-2.41691)">
        <path d="M483.009,370.558C483.009,359.555 474.031,350.622 462.973,350.622L361.319,350.622C350.261,350.622 341.283,359.555 341.283,370.558L341.283,463.595C341.283,474.598 350.261,483.531 361.319,483.531L462.973,483.531C474.031,483.531 483.009,474.598 483.009,463.595L483.009,370.558Z" style="fill:rgb(52,147,61);"/>
    </g>
    <g transform="matrix(1.00794,0,0,1.00528,-1.48405,-2.55467)">
        <path d="M311.257,369.161C311.257,358.838 302.898,350.458 292.603,350.458L205.555,350.458C195.26,350.458 186.902,358.838 186.902,369.161L186.902,464.695C186.902,475.017 195.26,483.398 205.555,483.398L292.603,483.398C302.898,483.398 311.257,475.017 311.257,464.695L311.257,369.161Z" style="fill:rgb(52,147,61);"/>
    </g>
</svg>
