<?xml version="1.0" encoding="UTF-8" standalone="no"?>
<!DOCTYPE svg PUBLIC "-//W3C//DTD SVG 1.1//EN" "http://www.w3.org/Graphics/SVG/1.1/DTD/svg11.dtd">
<svg width="100%" height="100%" viewBox="0 0 512 512" version="1.1" xmlns="http://www.w3.org/2000/svg" xmlns:xlink="http://www.w3.org/1999/xlink" xml:space="preserve" xmlns:serif="http://www.serif.com/" style="fill-rule:evenodd;clip-rule:evenodd;stroke-linejoin:round;stroke-miterlimit:2;">
    <g transform="matrix(1.02661,0,0,1.03858,-0.344865,-1.55754)">
        <path d="M151.986,47.663C151.986,37.542 143.674,29.326 133.435,29.326L46.721,29.326C36.483,29.326 28.171,37.542 28.171,47.663L28.171,133.232C28.171,143.352 36.483,151.569 46.721,151.569L133.435,151.569C143.674,151.569 151.986,143.352 151.986,133.232L151.986,47.663Z" style="fill:rgb(42,141,51);"/>
    </g>
    <path d="M483.276,48.282C483.276,37.828 474.789,29.34 464.335,29.34L203.332,29.34C192.878,29.34 184.39,37.828 184.39,48.282L184.39,136.674C184.39,147.128 192.878,155.615 203.332,155.615L464.335,155.615C474.789,155.615 483.276,147.128 483.276,136.674L483.276,48.282Z" style="fill:rgb(42,141,51);"/>
    <g transform="matrix(1.04404,0,0,1,-9.95074,0)">
        <path d="M240.159,203.966C240.159,193.446 231.978,184.906 221.902,184.906L136.704,184.906C126.628,184.906 118.447,193.446 118.447,203.966L118.447,307.749C118.447,318.268 126.628,326.809 136.704,326.809L221.902,326.809C231.978,326.809 240.159,318.268 240.159,307.749L240.159,203.966Z" style="fill:rgb(42,141,51);"/>
    </g>
    <g transform="matrix(1,0,0,0.999622,0,0.123456)">
        <path d="M483.132,206.42C483.132,194.704 473.624,185.193 461.912,185.193L290.651,185.193C278.94,185.193 269.431,194.704 269.431,206.42L269.431,305.482C269.431,317.198 278.94,326.709 290.651,326.709L461.912,326.709C473.624,326.709 483.132,317.198 483.132,305.482L483.132,206.42Z" style="fill:rgb(42,141,51);"/>
    </g>
    <g transform="matrix(1.04297,0,0,1.00533,-9.93409,-1.89389)">
        <path d="M240.13,374.619C240.13,364.154 231.94,355.658 221.853,355.658L136.559,355.658C126.471,355.658 118.282,364.154 118.282,374.619L118.282,463.899C118.282,474.365 126.471,482.861 136.559,482.861L221.853,482.861C231.94,482.861 240.13,474.365 240.13,463.899L240.13,374.619Z" style="fill:rgb(42,141,51);"/>
    </g>
    <path d="M483.155,374.913C483.155,364.325 474.559,355.729 463.971,355.729L288.748,355.729C278.159,355.729 269.563,364.325 269.563,374.913L269.563,464.44C269.563,475.028 278.159,483.624 288.748,483.624L463.971,483.624C474.559,483.624 483.155,475.028 483.155,464.44L483.155,374.913Z" style="fill:rgb(42,141,51);"/>
</svg>
