<?xml version="1.0" encoding="UTF-8" standalone="no"?>
<!DOCTYPE svg PUBLIC "-//W3C//DTD SVG 1.1//EN" "http://www.w3.org/Graphics/SVG/1.1/DTD/svg11.dtd">
<svg width="100%" height="100%" viewBox="0 0 384 512" version="1.1" xmlns="http://www.w3.org/2000/svg" xmlns:xlink="http://www.w3.org/1999/xlink" xml:space="preserve" xmlns:serif="http://www.serif.com/" style="fill-rule:evenodd;clip-rule:evenodd;stroke-linejoin:round;stroke-miterlimit:2;">
    <path d="M336,64L282.12,64C268.9,26.8 233.7,0 192,0C150.3,0 115.1,26.8 101.9,64L48,64C21.5,64 0,85.48 0,112L0,464C0,490.5 21.5,512 48,512L336,512C362.5,512 384,490.52 384,464L384,112C384,85.48 362.5,64 336,64ZM192,64C209.67,64 224,78.33 224,96C224,113.67 209.67,128 192,128C174.33,128 160,113.7 160,96C160,78.3 174.3,64 192,64ZM282.9,262.8L194.9,374.8C190.853,379.956 184.88,383.238 178.37,383.862C177.6,383.1 176.8,384 176,384C170.297,384 164.75,381.969 160.38,378.219L104.38,330.219C94.32,321.594 93.16,306.439 101.786,296.379C110.395,286.319 125.556,285.159 135.626,293.785L172.606,325.475L245.126,233.195C253.314,222.755 268.426,220.975 278.826,229.133C289.3,237.3 291.1,252.4 282.9,262.8Z" style="fill:rgb(210,163,0);fill-rule:nonzero;"/>
</svg>
